<?xml version="1.0" encoding="utf-8"?>
<!-- Generator: Adobe Illustrator 21.1.0, SVG Export Plug-In . SVG Version: 6.00 Build 0)  -->
<svg version="1.1" id="Camada_1" xmlns="http://www.w3.org/2000/svg" xmlns:xlink="http://www.w3.org/1999/xlink" x="0px" y="0px"
	 viewBox="0 0 13.4 14" style="enable-background:new 0 0 13.4 14;" xml:space="preserve">
<style type="text/css">
	.st0{fill:#333333;}
</style>
<path class="st0" d="M13.3,8.8l-1.8-1.5c0-0.1,0-0.2,0-0.3c0-0.1,0-0.2,0-0.3l1.8-1.4l0.2-0.6l-1.3-2.3l-0.6-0.2L9.4,3
	C9.2,2.9,9,2.8,8.8,2.7L8.4,0.4L8,0H5.4L4.9,0.4L4.6,2.7C4.4,2.8,4.2,2.9,4.1,3L1.9,2.2L1.3,2.4L0,4.6l0.2,0.6l1.8,1.4
	c0,0.1,0,0.2,0,0.3c0,0.1,0,0.2,0,0.3L0.2,8.8L0,9.4l1.3,2.3l0.6,0.2L4,11c0.2,0.1,0.4,0.2,0.6,0.3l0.4,2.3L5.4,14H8l0.4-0.4
	l0.4-2.3C9,11.2,9.2,11.1,9.4,11l2.1,0.8l0.6-0.2l1.3-2.3L13.3,8.8z M6.7,10.1C5,10.1,3.7,8.7,3.7,7c0-1.7,1.4-3.1,3.1-3.1
	c1.7,0,3.1,1.4,3.1,3.1C9.8,8.7,8.4,10.1,6.7,10.1z"/>
</svg>
