<?xml version="1.0" encoding="utf-8"?>
<!-- Generator: Adobe Illustrator 21.1.0, SVG Export Plug-In . SVG Version: 6.00 Build 0)  -->
<svg version="1.1" id="Camada_1" xmlns="http://www.w3.org/2000/svg" xmlns:xlink="http://www.w3.org/1999/xlink" x="0px" y="0px"
	 viewBox="0 0 14 14" style="enable-background:new 0 0 14 14;" xml:space="preserve">
<style type="text/css">
	.st0{fill:#333333;}
</style>
<path class="st0" d="M13.6,11.4l-3.3-3.3C10.7,7.4,11,6.5,11,5.5C11,2.5,8.5,0,5.5,0S0,2.5,0,5.5S2.5,11,5.5,11c1,0,1.9-0.3,2.7-0.7
	l3.3,3.3c0.3,0.3,0.7,0.4,1.1,0.4s0.8-0.1,1.1-0.4C14.1,13,14.1,12,13.6,11.4z M5.5,9.3c-2.1,0-3.8-1.7-3.8-3.8
	c0-2.1,1.7-3.8,3.8-3.8c2.1,0,3.8,1.7,3.8,3.8S7.6,9.3,5.5,9.3z"/>
</svg>
