<?xml version="1.0" encoding="utf-8"?>
<!-- Generator: Adobe Illustrator 21.1.0, SVG Export Plug-In . SVG Version: 6.00 Build 0)  -->
<svg version="1.1" id="Camada_1" xmlns="http://www.w3.org/2000/svg" xmlns:xlink="http://www.w3.org/1999/xlink" x="0px" y="0px"
	 viewBox="0 0 12.4 16" style="enable-background:new 0 0 12.4 16;" xml:space="preserve">
<path d="M12.3,9.9c-0.5,1.4-1.5,2.4-2.8,3v-3l1.6-1.5L9.5,7v-2C11,4.8,12,3.7,12,2.4C12,0.6,10.4,0,9.4,0C9.2,0,9,0,8.6,0.1v0.1
	c0.1,0,0.3,0,0.4,0c0.7,0,1.2,0.3,1.2,0.9c0,0.5-0.4,0.9-1,0.9C7.5,2,5.6,0.6,3.5,0.6C1.6,0.6,0.3,2,0.3,3.4c0,1.4,0.8,1.8,1.7,2.2
	l0-0.1C1.7,5.3,1.6,5.1,1.6,4.6c0-0.6,0.6-1.1,1.3-1.1c1.8,0,4.6,1.5,6.4,1.5h0.2V7L7.7,8.4l1.6,1.5v3c-0.7,0.2-1.4,0.4-2.1,0.4
	c-2.7,0-4.5-1.7-4.5-4.4c0-0.7,0.1-1.3,0.3-1.9l1.4-0.6v6.1l2.8-1.2V5L3.1,6.8c0.4-1.2,1.3-2.1,2.3-2.6l0-0.1C2.7,4.8,0,6.8,0,9.9
	C0,13.5,3,16,6.5,16C10.3,16,12.4,13.5,12.3,9.9L12.3,9.9z"/>
</svg>
