<?xml version="1.0" encoding="utf-8"?>
<!-- Generator: Adobe Illustrator 21.1.0, SVG Export Plug-In . SVG Version: 6.00 Build 0)  -->
<svg version="1.1" id="Camada_1" xmlns="http://www.w3.org/2000/svg" xmlns:xlink="http://www.w3.org/1999/xlink" x="0px" y="0px"
	 viewBox="0 0 412.8 412.8" style="enable-background:new 0 0 412.8 412.8;" xml:space="preserve">
<style type="text/css">
	.st0{fill:#333333;}
</style>
<path class="st0" d="M206.4,0C92.4,0,0,92.4,0,206.4s92.4,206.4,206.4,206.4s206.4-92.4,206.4-206.4S320.4,0,206.4,0z M300,166.9
	c0.1,1.9,0.2,3.9,0.2,5.8c0,59.5-45.3,128-128,128c-25.4,0-49-7.4-69-20.2c3.5,0.4,7.1,0.6,10.7,0.6c21.1,0,40.5-7.2,55.9-19.3
	c-19.7-0.3-36.3-13.4-42-31.2c2.7,0.5,5.6,0.8,8.5,0.8c4.1,0,8.1-0.5,11.8-1.6c-20.6-4.1-36.1-22.3-36.1-44.1v-0.6
	c6.1,3.4,13,5.4,20.4,5.6c-12.1-8.1-20-21.8-20-37.4c0-8.2,2.2-16,6.1-22.6c22.2,27.2,55.4,45.1,92.8,47c-0.8-3.3-1.2-6.7-1.2-10.3
	c0-24.8,20.2-45,45-45c13,0,24.7,5.5,32.9,14.2c10.2-2,19.8-5.8,28.6-10.9c-3.4,10.5-10.5,19.3-19.8,24.9c9.1-1.1,17.8-3.5,25.8-7.1
	C316.5,152.7,308.8,160.6,300,166.9z"/>
</svg>
